<?xml version="1.0" encoding="utf-8"?>
<!-- Generator: Adobe Illustrator 24.0.0, SVG Export Plug-In . SVG Version: 6.00 Build 0)  -->
<svg version="1.1" id="art" xmlns="http://www.w3.org/2000/svg" xmlns:xlink="http://www.w3.org/1999/xlink" x="0px" y="0px"
	 viewBox="0 0 349.5 110.6" style="enable-background:new 0 0 349.5 110.6;" xml:space="preserve">
<style type="text/css">
	.st0{fill:#231F20;}
	.st1{fill:#E1251B;}
</style>
<g>
	<path class="st0" d="M106.9,6.4c0,2.9-2.4,5.3-5.3,5.3c-2.9,0-5.3-2.4-5.3-5.3c0-3,2.5-5.3,5.3-5.3C104.4,1.1,106.9,3.4,106.9,6.4
		 M97.1,6.4c0,2.5,2,4.5,4.4,4.5c2.5,0,4.5-2,4.5-4.5c0-2.5-2-4.4-4.5-4.4C99.1,1.9,97.1,3.9,97.1,6.4 M99.6,3.4h2
		c0.7,0,2.1,0,2.1,1.6c0,1.1-0.7,1.3-1.1,1.5c0.8,0.1,0.9,0.6,1,1.3c0.1,0.5,0.1,1.3,0.3,1.6h-1.3c0-0.3-0.2-1.8-0.2-1.9
		c-0.1-0.3-0.2-0.5-0.6-0.5h-1v2.4h-1.1V3.4z M100.7,6h0.9c0.8,0,0.9-0.5,0.9-0.8c0-0.8-0.6-0.8-0.9-0.8h-1V6z"/>
	<path class="st1" d="M73.3,52.9c0,10.5-8.5,18.9-18.9,18.9c-10.5,0-18.9-8.5-18.9-18.9c0-10.5,8.5-18.9,18.9-18.9
		C64.9,33.9,73.3,42.4,73.3,52.9"/>
	<path class="st0" d="M47.8,0.6l-9.9,4.1l-7,26.2l-9.2-16L14,19.3l13,21.3c0.9,1.6,2.6,2.8,4.5,2.8c2.7,0.1,5-1.9,5.4-4.4l0,0
		L47.8,0.6z"/>
	<path class="st0" d="M86.8,10.9l-9.9-4.1L53.4,20.5l4.7-17.8l-8.5-2.2l-5.8,24.3c-0.5,1.8-0.1,3.8,1.2,5.2c1.9,2,4.8,2.2,7,0.7l0,0
		L86.8,10.9z"/>
	<path class="st0" d="M106.8,45.8l-4.1-9.9l-26.2-6.9l15.9-9.4l-4.5-7.6L66.6,25.3c-1.6,0.9-2.7,2.6-2.8,4.6c-0.1,2.7,1.9,5,4.5,5.4
		l0,0L106.8,45.8z"/>
	<path class="st0" d="M96.3,84.7l4.1-9.9L86.8,51.4l17.8,4.7l2.2-8.5l-24.3-5.8c-1.8-0.5-3.8-0.1-5.2,1.2c-2,1.9-2.2,4.8-0.7,7l0,0
		L96.3,84.7z"/>
	<path class="st0" d="M61.7,105.3l9.9-4.2l6.7-26.3l9.4,15.9l7.5-4.5L82,65.1c-0.9-1.6-2.6-2.7-4.6-2.8c-2.7,0-5,1.9-5.4,4.5l0,0
		L61.7,105.3z"/>
	<path class="st0" d="M22.6,94.6l9.9,4.1L56,85.2L51.2,103l8.5,2.3L65.6,81c0.5-1.8,0.1-3.8-1.2-5.2c-1.9-2-4.8-2.2-7-0.7l0,0
		L22.6,94.6z"/>
	<path class="st0" d="M2.4,59.6l4,9.9l26.2,7.2l-16,9.1l4.4,7.6l21.4-12.8c1.6-0.9,2.8-2.5,2.8-4.5c0.1-2.7-1.8-5-4.4-5.5l0,0
		L2.4,59.6z"/>
	<path class="st0" d="M12.8,20.6l-4.2,9.9L22.1,54L4.3,49.2L2,57.7l24.2,6c1.8,0.5,3.8,0.1,5.2-1.2c2-1.8,2.2-4.8,0.7-7l0,0
		L12.8,20.6z"/>
	<path class="st0" d="M180.8,0.6c4.8,0.1,6.7,0.6,8.3,2.3c1.4,1.6,2.3,4,2.3,6.8v21.6h-6.9V10.8c0.2-3.5-0.9-4.8-4.1-4.9h-3.7v25.3
		h-6.9V6h-7.5v25.3h-6.9V0.6H180.8z"/>
	<path class="st0" d="M220.4,6.1h-9.5c-4.6,0-6,0.5-7.4,2.3c-0.9,1.3-1.2,2.1-1.3,5h18.3v5.5h-18.3c0.5,5.3,2.7,7.1,9,7.1h9.2v5.5
		h-9.5c-6.3,0-9.4-0.8-11.8-3.1c-2.8-2.7-4.4-7.1-4.4-12.4c0-5.3,1.7-9.5,4.9-12.5c2.3-2,4.4-2.7,8.7-2.7h12.1V6.1z"/>
	<rect x="246.8" y="0.6" class="st0" width="6.5" height="30.7"/>
	<path class="st0" d="M281.6,31.3h-10.7c-5.1,0-7.5-0.7-9.9-2.8c-2.9-2.5-4.4-6.9-4.4-12.5c0-6.8,2.4-11.8,6.5-13.9
		c1.8-0.9,4.9-1.5,8.1-1.5h10.4v5.5h-9.6c-3,0-5,0.7-6.5,2.4c-1.1,1.2-1.7,3.7-1.7,7c0,4.3,0.9,7.6,2.6,8.9c1.2,1,3.1,1.5,5.7,1.5
		h9.4V31.3z"/>
	<path class="st0" d="M131.6,57.2h-8.1v11.7h-6.5V38.1h14c4.5,0,7.2,0.5,9,1.7c2.3,1.5,3.6,4,3.6,6.9c0,2.8-0.8,5.3-2.2,6.8
		c-1,1.1-1.9,1.6-3.6,2.2c0,0,4.9,0.4,4.9,4.2v9H136v-7.9C136,58.6,133.7,57.2,131.6,57.2 M131.7,51.7c1.6,0,2.6-0.2,3.2-0.7
		c0.9-0.6,1.5-2,1.5-3.5c0-1.8-0.8-3.1-2.2-3.6c-0.6-0.2-1.4-0.3-2.5-0.3h-8.2v8.1H131.7z"/>
	<path class="st0" d="M200.7,56.2h-18.3v12.7h-6.5v-16c0-7.9,1.1-10.5,5.1-13c2.3-1.3,5-1.8,9.1-1.7h10.6v5.5h-9.8
		c-6.6,0.1-8.3,1.2-8.5,5.4v1.7h18.3V56.2z"/>
	<path class="st0" d="M317.4,50.6v18.2h-13.7c-4.7,0-7.2-0.6-9.4-2.4c-3.1-2.4-4.8-6.9-4.8-12.9c0-5.9,1.7-10.4,4.8-12.9
		c2.2-1.8,5.4-2.6,9.8-2.6h13.5v5.5h-12.7c-5.9,0-8.2,2.7-8.2,9.4c0,3.7,0.8,7,2.1,8.4c1.2,1.3,3.2,1.9,6.3,1.9h5.9v-7.3h-8.6v-5.5
		H317.4z"/>
	<path class="st0" d="M194.6,79.1c2,2.5,3.2,6.6,3.2,11.6c0,5.3-1.6,9.6-4.5,12.1c-2.3,1.9-5.9,3-10.2,3c-5.8,0-10.4-1.8-12.8-5.1
		c-1.9-2.6-2.9-6-2.9-10.3c0-5.7,1.5-10.1,4.4-12.5c2.4-2.1,6.3-3.2,10.8-3.2C187.9,74.6,192.3,76.3,194.6,79.1 M176.2,82.8
		c-1,1.5-1.5,4-1.5,7.4c0,7.2,2.5,10.5,8,10.5c5.4,0,7.9-3.3,7.9-10.4c0-7.2-2.4-10.4-7.9-10.4C179.8,79.9,177.5,80.9,176.2,82.8"/>
	<path class="st0" d="M207.3,93.3c0,2.9,0.4,4.3,1.6,5.5c1.2,1.2,3.3,1.9,5.4,1.9c2.9,0,5.3-1.1,6.1-2.8c0.5-0.9,0.6-2.3,0.6-4.6
		V74.9h6.5V93c0,4.7-1,7.7-3.1,9.7c-2.5,2.2-5.8,3.2-10.3,3.2c-4.7,0-8.2-1-10.4-3.1c-2.3-2.2-3-4.4-3-9.3V74.9h6.5V93.3z"/>
	<path class="st0" d="M238.8,105.6h-6.5V74.9h15.3c5.3,0,7.2,0.6,9.2,2.6c1.9,2,2.9,4.6,2.9,7.4c0,3.1-1.2,6.1-3.2,7.9
		c-1.8,1.6-3.5,2.1-7.1,2.1h-10.5V105.6z M247.7,89.4c1.7,0,2.7-0.2,3.4-0.8c0.9-0.7,1.4-2.2,1.4-4c0-2-0.8-3.4-2.2-4
		c-0.6-0.2-1.3-0.3-2.5-0.3h-9v9H247.7z"/>
	<path class="st0" d="M335.5,0.6c4.8,0.1,6.7,0.6,8.3,2.3c1.4,1.6,2.3,4,2.3,6.8v21.6h-6.9V10.8c0.2-3.5-0.9-4.8-4.1-4.9h-8.6v25.3
		h-6.9V6V0.6H335.5z"/>
	<path class="st0" d="M243.7,0.6h-12.8h-1.2h-0.8c-2.5,0-4.5,2-4.5,4.5v26.2h6.5V7.6c0-1,0.8-1.9,1.9-1.9h10.9V0.6z"/>
	<path class="st0" d="M172.2,43.6h-9.5c-4.6,0-6,0.5-7.4,2.3c-0.9,1.3-1.2,2.1-1.3,5h18.3v5.5h-18.3c0.5,5.3,2.7,7.1,9,7.1h9.2v5.5
		h-9.5c-6.3,0-9.4-0.8-11.8-3.1c-2.8-2.7-4.4-7.1-4.4-12.4c0-5.3,1.7-9.5,4.9-12.5c2.3-2,4.4-2.7,8.7-2.7h12.1V43.6z"/>
	<rect x="204.4" y="38.1" class="st0" width="6.5" height="30.7"/>
	<path class="st0" d="M232.2,38.1c4.8,0.1,6.7,0.6,8.3,2.3c1.4,1.6,2.3,4,2.3,6.8v21.6h-6.9V48.4c0.2-3.5-0.9-4.8-4.1-4.9h-8.6v25.3
		h-6.9V43.5v-5.4H232.2z"/>
	<rect x="247.7" y="38.1" class="st0" width="6.5" height="30.7"/>
	<path class="st0" d="M275.5,38.1c4.8,0.1,6.7,0.6,8.3,2.3c1.4,1.6,2.3,4,2.3,6.8v21.6h-6.9V48.4c0.2-3.5-0.9-4.8-4.1-4.9h-8.6v25.3
		h-6.9V43.5v-5.4H275.5z"/>
	<path class="st0" d="M143.5,87.5v18.2h-13.7c-4.7,0-7.2-0.6-9.4-2.4c-3.1-2.4-4.8-6.9-4.8-12.9c0-5.9,1.7-10.4,4.8-12.9
		c2.2-1.8,5.4-2.6,9.8-2.6h13.5v5.5h-12.7c-5.9,0-8.2,2.7-8.2,9.4c0,3.7,0.8,7,2.1,8.4c1.2,1.3,3.2,1.9,6.3,1.9h5.9v-7.3h-8.6v-5.5
		H143.5z"/>
	<path class="st0" d="M167.6,75h-12.8h-1.2h-0.8c-2.5,0-4.5,2-4.5,4.5v26.2h6.5V82c0-1,0.8-1.9,1.9-1.9h10.9V75z"/>
	<rect x="272.7" y="75" class="st0" width="6.5" height="30.7"/>
	<path class="st0" d="M300.5,75c4.8,0.1,6.7,0.6,8.3,2.3c1.4,1.6,2.3,4,2.3,6.8v21.6h-6.9V85.2c0.2-3.5-0.9-4.8-4.1-4.9h-8.6v25.3
		h-6.9V80.4V75H300.5z"/>
	<path class="st0" d="M339.3,105.7h-10.7c-5.1,0-7.5-0.7-9.9-2.8c-2.9-2.5-4.4-6.9-4.4-12.5c0-6.8,2.4-11.8,6.5-13.9
		c1.8-0.9,4.9-1.5,8.1-1.5h10.4v5.5h-9.6c-3,0-5,0.7-6.5,2.4c-1.1,1.2-1.7,3.7-1.7,7c0,4.3,0.9,7.6,2.6,8.9c1.2,1,3.1,1.5,5.7,1.5
		h9.4V105.7z"/>
	<rect x="342" y="100.2" class="st0" width="5.5" height="5.5"/>
	<polygon class="st0" points="253.1,105.7 258.6,110.6 258.6,100.2 253.1,100.2 	"/>
	<path class="st0" d="M147.3,0.8c-2.3-1.4-5.1-0.9-6.8,1.1l0,0l-23.5,29.4h8.1h0.1h17.5h1.1h5.9V5.4C149.8,3.6,148.9,1.8,147.3,0.8
		 M129.4,26.1l13.3-16.4v16.4H129.4z"/>
	<path class="st0" d="M311.5,0.8c-2.3-1.4-5.1-0.9-6.8,1.1l0,0l-23.5,29.4h8.1h0.1h17.5h1.1h5.9V5.4C314,3.6,313.1,1.8,311.5,0.8
		 M293.5,26.1l13.3-16.4v16.4H293.5z"/>
</g>
</svg>
